<svg xmlns="http://www.w3.org/2000/svg" xmlns:xlink="http://www.w3.org/1999/xlink" width="500" zoomAndPan="magnify" viewBox="0 0 375 374.999991" height="500" preserveAspectRatio="xMidYMid meet" version="1.0"><defs><g/><clipPath id="c46053998f"><path d="M 187.5 0 C 83.945312 0 0 83.945312 0 187.5 C 0 291.054688 83.945312 375 187.5 375 C 291.054688 375 375 291.054688 375 187.5 C 375 83.945312 291.054688 0 187.5 0 Z M 187.5 0 " clip-rule="nonzero"/></clipPath><clipPath id="93f4efd782"><path d="M 0 0 L 375 0 L 375 375 L 0 375 Z M 0 0 " clip-rule="nonzero"/></clipPath><clipPath id="24f2e6ba1a"><path d="M 187.5 0 C 83.945312 0 0 83.945312 0 187.5 C 0 291.054688 83.945312 375 187.5 375 C 291.054688 375 375 291.054688 375 187.5 C 375 83.945312 291.054688 0 187.5 0 Z M 187.5 0 " clip-rule="nonzero"/></clipPath><clipPath id="04221dfb8e"><rect x="0" width="375" y="0" height="375"/></clipPath><clipPath id="e8b4a6cd4d"><path d="M 59 4 L 230.800781 4 L 230.800781 73 L 59 73 Z M 59 4 " clip-rule="nonzero"/></clipPath><clipPath id="0185e80ff2"><rect x="0" width="172" y="0" height="69"/></clipPath><clipPath id="e53acd22cb"><path d="M 91 65 L 200 65 L 200 89.480469 L 91 89.480469 Z M 91 65 " clip-rule="nonzero"/></clipPath><clipPath id="d363ecee81"><rect x="0" width="109" y="0" height="25"/></clipPath><clipPath id="d1181cba67"><path d="M 0.597656 7 L 44 7 L 44 68 L 0.597656 68 Z M 0.597656 7 " clip-rule="nonzero"/></clipPath><clipPath id="04dd514787"><path d="M 48 0.285156 L 50.597656 0.285156 L 50.597656 84.535156 L 48 84.535156 Z M 48 0.285156 " clip-rule="nonzero"/></clipPath><clipPath id="fc412c3480"><rect x="0" width="231" y="0" height="90"/></clipPath></defs><g clip-path="url(#c46053998f)"><g transform="matrix(1, 0, 0, 1, 0, 0)"><g clip-path="url(#04221dfb8e)"><g clip-path="url(#93f4efd782)"><g clip-path="url(#24f2e6ba1a)"><rect x="-82.5" width="540" fill="#000000" height="539.999987" y="-82.499998" fill-opacity="1"/></g></g></g></g></g><g transform="matrix(1, 0, 0, 1, 68, 145)"><g clip-path="url(#fc412c3480)"><g clip-path="url(#e8b4a6cd4d)"><g transform="matrix(1, 0, 0, 1, 59, 4)"><g clip-path="url(#0185e80ff2)"><g fill="#ffffff" fill-opacity="1"><g transform="translate(0.60693, 53.438911)"><g><path d="M 36.296875 -50.609375 L 48.515625 -50.609375 L 48.515625 0 L 36.296875 0 L 36.296875 -13.8125 L 31.671875 0 L 19.375 0 L 14.828125 -13.8125 L 14.828125 0 L 2.53125 0 L 2.53125 -50.609375 L 3.609375 -50.609375 C 5.203125 -50.609375 6.722656 -50.296875 8.171875 -49.671875 C 10.578125 -48.796875 12.71875 -47.429688 14.59375 -45.578125 C 16.476562 -43.722656 17.832031 -41.519531 18.65625 -38.96875 L 25.515625 -18.4375 Z M 36.296875 -50.609375 "/></g></g></g><g fill="#ffffff" fill-opacity="1"><g transform="translate(51.718656, 53.438911)"><g><path d="M 25.515625 -50.609375 C 27.785156 -50.609375 29.847656 -50.050781 31.703125 -48.9375 C 33.554688 -47.832031 35.035156 -46.351562 36.140625 -44.5 C 37.253906 -42.644531 37.8125 -40.582031 37.8125 -38.3125 L 37.8125 0 L 25.515625 0 L 25.515625 -18.4375 L 14.828125 -18.4375 L 14.828125 0 L 2.53125 0 L 2.53125 -50.609375 Z M 14.828125 -30.65625 L 25.515625 -30.65625 L 25.515625 -38.3125 L 14.828125 -38.3125 Z M 14.828125 -30.65625 "/></g></g></g><g fill="#ffffff" fill-opacity="1"><g transform="translate(91.769432, 53.438911)"><g><path d="M 0.71875 -50.609375 L 39.625 -50.609375 C 39.625 -48.335938 39.066406 -46.273438 37.953125 -44.421875 C 36.847656 -42.566406 35.363281 -41.082031 33.5 -39.96875 C 31.644531 -38.863281 29.585938 -38.3125 27.328125 -38.3125 L 25.515625 -38.3125 L 25.515625 0 L 13.296875 0 L 13.296875 -38.3125 L 0.71875 -38.3125 Z M 0.71875 -50.609375 "/></g></g></g><g fill="#ffffff" fill-opacity="1"><g transform="translate(130.663501, 53.438911)"><g><path d="M 0.71875 -50.609375 L 39.625 -50.609375 C 39.625 -48.335938 39.066406 -46.273438 37.953125 -44.421875 C 36.847656 -42.566406 35.363281 -41.082031 33.5 -39.96875 C 31.644531 -38.863281 29.585938 -38.3125 27.328125 -38.3125 L 25.515625 -38.3125 L 25.515625 0 L 13.296875 0 L 13.296875 -38.3125 L 0.71875 -38.3125 Z M 0.71875 -50.609375 "/></g></g></g></g></g></g><g clip-path="url(#e53acd22cb)"><g transform="matrix(1, 0, 0, 1, 91, 65)"><g clip-path="url(#d363ecee81)"><g fill="#ffffff" fill-opacity="1"><g transform="translate(1.010685, 18.130079)"><g><path d="M 3.546875 0 L 2.078125 0 L 2.078125 -13.53125 L 7.8125 -13.53125 L 7.8125 -12.28125 L 3.546875 -12.28125 L 3.546875 -7.5 L 6.984375 -7.5 L 6.984375 -6.25 L 3.546875 -6.25 Z M 3.546875 0 "/></g></g></g><g fill="#ffffff" fill-opacity="1"><g transform="translate(13.027014, 18.130079)"><g><path d="M 5 -1.25 L 5 0 L 1.453125 0 L 1.453125 -1.25 L 2.5 -1.25 L 2.5 -12.28125 L 1.453125 -12.28125 L 1.453125 -13.53125 L 5 -13.53125 L 5 -12.28125 L 3.953125 -12.28125 L 3.953125 -1.25 Z M 5 -1.25 "/></g></g></g><g fill="#ffffff" fill-opacity="1"><g transform="translate(22.856908, 18.130079)"><g><path d="M 3.546875 0 L 2.078125 0 L 2.078125 -13.53125 L 4.265625 -13.53125 L 6.640625 -4.609375 L 9.046875 -13.53125 L 11.21875 -13.53125 L 11.21875 0 L 9.765625 0 L 9.765625 -11.203125 L 7.328125 -2.078125 L 5.984375 -2.078125 L 3.546875 -11.203125 Z M 3.546875 0 "/></g></g></g><g fill="#ffffff" fill-opacity="1"><g transform="translate(39.537639, 18.130079)"><g><path d="M 3.546875 0 L 2.078125 0 L 2.078125 -13.53125 L 4.265625 -13.53125 L 6.640625 -4.609375 L 9.046875 -13.53125 L 11.21875 -13.53125 L 11.21875 0 L 9.765625 0 L 9.765625 -11.203125 L 7.328125 -2.078125 L 5.984375 -2.078125 L 3.546875 -11.203125 Z M 3.546875 0 "/></g></g></g><g fill="#ffffff" fill-opacity="1"><g transform="translate(56.21837, 18.130079)"><g><path d="M 3.890625 -13.53125 L 6.078125 -13.53125 L 9.140625 0 L 7.6875 0 L 6.984375 -3.125 L 3 -3.125 L 2.296875 0 L 0.828125 0 Z M 4.984375 -11.90625 L 3.265625 -4.375 L 6.6875 -4.375 Z M 4.984375 -11.90625 "/></g></g></g><g fill="#ffffff" fill-opacity="1"><g transform="translate(69.567385, 18.130079)"><g><path d="M 3.5625 0 L 2.109375 0 L 2.109375 -13.53125 L 3.5625 -13.53125 L 3.5625 -7.796875 L 7.1875 -13.53125 L 8.8125 -13.53125 L 5.125 -7.703125 L 9.0625 0 L 7.453125 0 L 4.25 -6.3125 L 3.5625 -5.203125 Z M 3.5625 0 "/></g></g></g><g fill="#ffffff" fill-opacity="1"><g transform="translate(82.416648, 18.130079)"><g><path d="M 8.234375 0 L 2.078125 0 L 2.078125 -13.53125 L 8.015625 -13.53125 L 8.015625 -12.28125 L 3.546875 -12.28125 L 3.546875 -7.5 L 7.1875 -7.5 L 7.1875 -6.25 L 3.546875 -6.25 L 3.546875 -1.25 L 8.234375 -1.25 Z M 8.234375 0 "/></g></g></g><g fill="#ffffff" fill-opacity="1"><g transform="translate(95.057672, 18.130079)"><g><path d="M 3.546875 0 L 2.078125 0 L 2.078125 -13.53125 L 5.234375 -13.53125 C 6.316406 -13.53125 7.140625 -13.273438 7.703125 -12.765625 C 8.265625 -12.253906 8.546875 -11.539062 8.546875 -10.625 L 8.546875 -7.703125 C 8.546875 -6.285156 7.929688 -5.382812 6.703125 -5 L 9.265625 0 L 7.671875 0 L 5.234375 -4.796875 L 3.546875 -4.796875 Z M 7.078125 -7.703125 L 7.078125 -10.625 C 7.078125 -11.144531 6.914062 -11.550781 6.59375 -11.84375 C 6.28125 -12.132812 5.828125 -12.28125 5.234375 -12.28125 L 3.546875 -12.28125 L 3.546875 -6.046875 L 5.234375 -6.046875 C 6.460938 -6.046875 7.078125 -6.597656 7.078125 -7.703125 Z M 7.078125 -7.703125 "/></g></g></g></g></g></g><g clip-path="url(#d1181cba67)"><path fill="#ffffff" d="M 0.632812 23.15625 L 0.632812 61.625 C 0.632812 64.640625 3.101562 67.113281 6.121094 67.113281 L 25.242188 67.113281 C 22.203125 63.15625 20.402344 58.207031 20.402344 52.835938 C 20.402344 39.871094 30.910156 29.363281 43.875 29.363281 L 43.875 7.789062 L 35.441406 7.789062 C 33.601562 7.789062 31.894531 8.773438 30.976562 10.367188 L 26.757812 17.671875 L 6.121094 17.671875 C 3.101562 17.671875 0.632812 20.140625 0.632812 23.15625 Z M 7.066406 23.222656 C 7.066406 22.785156 7.421875 22.429688 7.859375 22.429688 L 20.328125 22.429688 C 20.765625 22.429688 21.125 22.789062 21.125 23.222656 L 21.125 26.40625 C 21.125 26.847656 20.765625 27.203125 20.328125 27.203125 L 7.863281 27.203125 C 7.421875 27.203125 7.066406 26.84375 7.066406 26.40625 Z M 7.066406 23.222656 " fill-opacity="1" fill-rule="nonzero"/></g><path fill="#ffffff" d="M 41.5625 37.449219 C 40.839844 37.554688 40.132812 37.710938 39.445312 37.914062 C 41.355469 39.175781 42.617188 41.347656 42.617188 43.8125 C 42.617188 47.71875 39.453125 50.882812 35.546875 50.882812 C 32.921875 50.882812 30.632812 49.449219 29.410156 47.328125 C 29.058594 48.296875 28.796875 49.316406 28.644531 50.367188 C 27.257812 59.898438 34.609375 68.074219 43.871094 68.074219 L 43.871094 72.542969 C 38.566406 72.542969 33.578125 70.476562 29.824219 66.726562 C 26.074219 62.976562 24.007812 57.988281 24.007812 52.679688 C 24.007812 47.371094 26.074219 42.382812 29.824219 38.632812 C 33.578125 34.878906 38.566406 32.8125 43.871094 32.8125 L 43.871094 37.285156 C 43.113281 37.28125 42.34375 37.335938 41.5625 37.449219 Z M 41.5625 37.449219 " fill-opacity="1" fill-rule="nonzero"/><g clip-path="url(#04dd514787)"><path fill="#ffffff" d="M 48.28125 0.285156 L 50.480469 0.285156 L 50.480469 84.714844 L 48.28125 84.714844 Z M 48.28125 0.285156 " fill-opacity="1" fill-rule="nonzero"/></g></g></g></svg>