<svg xmlns="http://www.w3.org/2000/svg" xmlns:xlink="http://www.w3.org/1999/xlink" width="500" zoomAndPan="magnify" viewBox="0 0 375 374.999991" height="500" preserveAspectRatio="xMidYMid meet" version="1.0"><defs><g/><clipPath id="e30521693a"><path d="M 187.5 0 C 83.945312 0 0 83.945312 0 187.5 C 0 291.054688 83.945312 375 187.5 375 C 291.054688 375 375 291.054688 375 187.5 C 375 83.945312 291.054688 0 187.5 0 Z M 187.5 0 " clip-rule="nonzero"/></clipPath><clipPath id="9e4a188953"><path d="M 0 0 L 375 0 L 375 375 L 0 375 Z M 0 0 " clip-rule="nonzero"/></clipPath><clipPath id="579e7db45e"><path d="M 187.5 0 C 83.945312 0 0 83.945312 0 187.5 C 0 291.054688 83.945312 375 187.5 375 C 291.054688 375 375 291.054688 375 187.5 C 375 83.945312 291.054688 0 187.5 0 Z M 187.5 0 " clip-rule="nonzero"/></clipPath><clipPath id="975ff161a9"><rect x="0" width="375" y="0" height="375"/></clipPath><clipPath id="0c396d7527"><rect x="0" width="146" y="0" height="193"/></clipPath></defs><g clip-path="url(#e30521693a)"><g transform="matrix(1, 0, 0, 1, 0, 0)"><g clip-path="url(#975ff161a9)"><g clip-path="url(#9e4a188953)"><g clip-path="url(#579e7db45e)"><rect x="-82.5" width="540" fill="#ffffff" height="539.999987" y="-82.499998" fill-opacity="1"/></g></g></g></g></g><g transform="matrix(1, 0, 0, 1, 115, 91)"><g clip-path="url(#0c396d7527)"><g fill="#000000" fill-opacity="1"><g transform="translate(0.777334, 150.07954)"><g><path d="M 101.78125 -141.921875 L 136.046875 -141.921875 L 136.046875 0 L 101.78125 0 L 101.78125 -38.71875 L 88.796875 0 L 54.34375 0 L 41.5625 -38.71875 L 41.5625 0 L 7.09375 0 L 7.09375 -141.921875 L 10.140625 -141.921875 C 14.597656 -141.921875 18.851562 -141.046875 22.90625 -139.296875 C 29.664062 -136.859375 35.679688 -133.035156 40.953125 -127.828125 C 46.222656 -122.628906 50.007812 -116.445312 52.3125 -109.28125 L 71.578125 -51.703125 Z M 101.78125 -141.921875 "/></g></g></g></g></g></svg>